#!OML:ASF H:\ManfredETheater\Project 1\Capture day 1\Session 1\subject.ASF
:FULLY-SPECIFIED
:DEGREES
185
root 19.8754 16.4441 31.2006 -10.5875 57.4847 -7.38819
lowerback 13.2127 1.20621 1.08442
upperback 0.953907 2.04725 3.34189
thorax -6.49767 1.04392 2.53771
lowerneck -15.1378 -3.37391 -4.31884
upperneck 21.5437 -3.13084 -1.33817
head 9.34906 -1.90462 -0.121899
rclavicle -8.15017e-015 2.5842e-014
rhumerus -52.603 14.6637 -94.122
rradius 115.053
rwrist -15.3932
rhand -18.6609 11.2158
rfingers 7.12502
rthumb 7.6325 -18.6265
lclavicle -8.15017e-015 2.5842e-014
lhumerus -71.6993 -6.19391 93.7105
lradius 86.4536
lwrist 15.9705
lhand -22.9913 -12.2163
lfingers 7.12502
lthumb 3.45147 17.7355
rfemur -14.7894 -10.9828 22.108
rtibia 77.6417
rfoot -0.878411 -2.51624
rtoes -25.7727
lfemur -33.2897 -3.49572 -19.8656
ltibia 29.7708
lfoot -11.2917 -2.97332
ltoes -27.0632
186
root 20.1833 16.3636 31.4171 -11.1003 57.3484 -7.26019
lowerback 13.7802 1.05773 1.03734
upperback 0.966606 1.86341 3.35789
thorax -6.79609 0.956156 2.60965
lowerneck -15.3258 -3.2043 -4.18996
upperneck 21.7562 -2.88045 -1.47142
head 9.45008 -1.7946 -0.162583
rclavicle -5.51627e-014 -3.29983e-014
rhumerus -52.7285 14.4756 -94.3629
rradius 114.682
rwrist -14.6831
rhand -18.339 11.3146
rfingers 7.12502
rthumb 7.94311 -18.5161
lclavicle -5.51627e-014 -3.29983e-014
lhumerus -71.6404 -5.42406 93.5481
lradius 87.1136
lwrist 16.0003
lhand -23.1695 -12.0331
lfingers 7.12502
lthumb 3.2794 17.9215
rfemur -15.7614 -11.5355 21.4528
rtibia 79.3921
rfoot -1.925 -3.39768
rtoes -25.7826
lfemur -33.1304 -3.36701 -20.2217
ltibia 32.2825
lfoot -9.79321 -3.21869
ltoes -24.6185
187
root 20.4803 16.28 31.6292 -11.362 57.3128 -6.8512
lowerback 14.4237 0.895016 0.81699
upperback 0.99175 1.62902 3.31624
thorax -7.12378 0.848439 2.73166
lowerneck -15.5323 -3.01862 -4.00062
upperneck 21.9041 -2.61872 -1.62998
head 9.53125 -1.67737 -0.219969
rclavicle 8.60489e-014 -5.96354e-015
rhumerus -52.7806 14.1233 -94.6259
rradius 114.157
rwrist -13.9042
rhand -18.0898 11.395
rfingers 7.12502
rthumb 8.18367 -18.4265
lclavicle 8.60489e-014 -5.96354e-015
lhumerus -71.4603 -4.71012 93.4317
lradius 87.7581
lwrist 16.0159
lhand -23.4187 -11.7749
lfingers 7.12502
lthumb 3.03874 18.1832
rfemur -16.9014 -12.0925 20.6645
rtibia 80.999
rfoot -2.96016 -4.16744
rtoes -25.9302
lfemur -33.1824 -3.41443 -20.6951
ltibia 35.2443
lfoot -8.32971 -3.37757
ltoes -20.9569
188
root 20.7668 16.1946 31.8382 -11.2872 57.3573 -6.08966
lowerback 15.0941 0.738204 0.380327
upperback 1.03683 1.3563 3.20822
thorax -7.44435 0.728726 2.91838
lowerneck -15.7613 -2.81858 -3.7579
upperneck 21.9827 -2.34818 -1.80903
head 9.59202 -1.55409 -0.291619
rclavicle -3.15322e-014 2.38542e-015
rhumerus -52.7376 13.5815 -94.8767
rradius 113.463
rwrist -13.0271
rhand -17.8235 11.3994
rfingers 7.12502
rthumb 8.44065 -18.4119
lclavicle -3.15322e-014 2.38542e-015
lhumerus -71.1015 -4.0594 93.3724
lradius 88.3468
lwrist 16.0778
lhand -23.7154 -11.4342
lfingers 7.12502
lthumb 2.75218 18.5278
rfemur -18.2354 -12.6032 19.7267
rtibia 82.4491
rfoot -4.019 -4.81212
rtoes -26.1882
lfemur -33.391 -3.67835 -21.2901
ltibia 38.5308
lfoot -7.21211 -3.34409
ltoes -15.8175
189
root 21.0439 16.1069 32.045 -10.9064 57.4417 -5.04353
lowerback 15.7289 0.603623 -0.232558
upperback 1.11146 1.06918 3.0529
thorax -7.71074 0.6082 3.16299
lowerneck -16.0173 -2.61444 -3.49715
upperneck 21.9865 -2.07877 -1.99121
head 9.63251 -1.43034 -0.366965
rclavicle 4.08254e-014 -2.78299e-015
rhumerus -52.6016 12.8798 -95.1152
rradius 112.581
rwrist -12.2532
rhand -17.7188 11.383
rfingers 7.12502
rthumb 8.54169 -18.4242
lclavicle 4.08254e-014 -2.78299e-015
lhumerus -70.5188 -3.49957 93.3915
lradius 88.8475
lwrist 16.2487
lhand -24.0621 -11.0165
lfingers 7.12502
lthumb 2.41743 18.9495
rfemur -19.7813 -13.0204 18.7159
rtibia 83.7226
rfoot -5.14975 -5.37159
rtoes -26.5546
lfemur -33.6957 -4.08803 -21.9768
ltibia 41.9764
lfoot -6.64861 -3.13151
ltoes -9.55203
190
root 21.3141 16.0159 32.2502 -10.2829 57.5019 -3.80551
lowerback 16.2865 0.500658 -0.937839
upperback 1.21537 0.793552 2.85893
thorax -7.8985 0.496298 3.42026
lowerneck -16.3136 -2.41115 -3.24087
upperneck 21.937 -1.8161 -2.15446
head 9.66324 -1.30828 -0.435672
rclavicle -5.19573e-014 -1.94809e-014
rhumerus -52.3739 12.0218 -95.3206
rradius 111.492
rwrist -11.5994
rhand -17.7478 11.2794
rfingers 7.12502
rthumb 8.51372 -18.529
lclavicle -5.19573e-014 -1.94809e-014
lhumerus -69.6909 -3.07249 93.4699
lradius 89.2186
lwrist 16.6008
lhand -24.4151 -10.5942
lfingers 7.12502
lthumb 2.07649 19.3754
rfemur -21.5413 -13.2983 17.712
rtibia 84.788
rfoot -6.34136 -5.86685
rtoes -27.0439
lfemur -34.0371 -4.51881 -22.7272
ltibia 45.4368
lfoot -6.75859 -2.68476
ltoes -3.22114
191
root 21.5805 15.9225 32.4548 -9.55211 57.4662 -2.54247
lowerback 16.7214 0.44085 -1.62691
upperback 1.34754 0.568766 2.65356
thorax -7.98531 0.407636 3.64628
lowerneck -16.6266 -2.21577 -2.99248
upperneck 21.8405 -1.56727 -2.30942
head 9.68189 -1.1925 -0.501424
rclavicle -1.66731e-014 -1.59028e-015
rhumerus -52.0655 11.0286 -95.465
rradius 110.171
rwrist -11.1462
rhand -17.9209 11.0631
rfingers 7.12502
rthumb 8.34668 -18.752
lclavicle -1.66731e-014 -1.59028e-015
lhumerus -68.5749 -2.80012 93.6016
lradius 89.3706
lwrist 17.1162
lhand -24.7464 -10.183
lfingers 7.12502
lthumb 1.75653 19.7895
rfemur -23.493 -13.3874 16.8368
rtibia 85.599
rfoot -7.56532 -6.33412
rtoes -27.6291
lfemur -34.3361 -4.88719 -23.4572
ltibia 48.7562
lfoot -7.51059 -2.09967
ltoes 2.55546
192
root 21.8462 15.8309 32.6588 -8.88806 57.2867 -1.43066
lowerback 17.0249 0.42906 -2.18588
upperback 1.50314 0.429155 2.46004
thorax -7.97586 0.354252 3.79063
lowerneck -16.9388 -2.04346 -2.78826
upperneck 21.7355 -1.34943 -2.42737
head 9.69926 -1.09067 -0.550607
rclavicle -5.5933e-014 -1.59028e-014
rhumerus -51.7101 9.91804 -95.5221
rradius 108.606
rwrist -10.8817
rhand -18.2816 10.724
rfingers 7.12502
rthumb 7.99857 -19.1046
lclavicle -5.5933e-014 -1.59028e-014
lhumerus -67.1966 -2.7396 93.7698
lradius 89.2811
lwrist 17.8003
lhand -25.0182 -9.86013
lfingers 7.12502
lthumb 1.49398 20.1144
rfemur -25.5515 -13.2643 16.1883
rtibia 86.088
rfoot -8.78944 -6.78903
rtoes -28.2588
lfemur -34.4896 -5.11857 -24.0805
ltibia 51.8362
lfoot -8.88268 -1.41618
ltoes 6.79514
193
root 22.1136 15.7432 32.8619 -8.3808 56.9389 -0.567811
lowerback 17.192 0.462058 -2.55661
upperback 1.66487 0.387301 2.29895
thorax -7.88992 0.340457 3.83805
lowerneck -17.2184 -1.89471 -2.64261
upperneck 21.6502 -1.15671 -2.51488
head 9.71909 -1.00174 -0.582252
rclavicle 4.32357e-015 -2.78299e-014
rhumerus -51.344 8.75852 -95.4709
rradius 106.804
rwrist -10.8074
rhand -18.8375 10.276
rfingers 7.12502
rthumb 7.46203 -19.5724
lclavicle 4.32357e-015 -2.78299e-014
lhumerus -65.5718 -2.85145 93.9563
lradius 88.9071
lwrist 18.533
lhand -25.2629 -9.64606
lfingers 7.12502
lthumb 1.25761 20.33
rfemur -27.6585 -12.9356 15.8115
rtibia 86.2116
rfoot -9.94173 -7.25502
rtoes -28.9754
lfemur -34.4857 -5.10823 -24.5853
ltibia 54.59
lfoot -10.5654 -0.764213
ltoes 9.07058
194
root 22.3836 15.6625 33.0638 -8.06062 56.4416 0.0178151
lowerback 17.2343 0.534423 -2.72163
upperback 1.81105 0.441393 2.17354
thorax -7.75915 0.365751 3.78255
lowerneck -17.4425 -1.77898 -2.55894
upperneck 21.62 -0.999112 -2.57438
head 9.74925 -0.930824 -0.598128
rclavicle -6.93262e-014 -6.75868e-015
rhumerus -51.0139 7.58401 -95.3108
rradius 104.81
rwrist -10.8635
rhand -19.549 9.76353
rfingers 7.12502
rthumb 6.77523 -20.1081
lclavicle -6.93262e-014 -6.75868e-015
lhumerus -63.7866 -3.13241 94.1229
lradius 88.2822
lwrist 19.118
lhand -25.429 -9.5694
lfingers 7.12502
lthumb 1.09724 20.4075
rfemur -29.7517 -12.4443 15.7026
rtibia 85.967
rfoot -11.0002 -7.73804
rtoes -29.7509
lfemur -34.3529 -4.90752 -24.9496
ltibia 57.13
lfoot -12.1939 0.0244205
ltoes 10.8117
195
root 22.6562 15.59 33.2646 -7.87966 55.8369 0.384608
lowerback 17.168 0.635298 -2.72675
upperback 1.92384 0.567765 2.08006
thorax -7.61019 0.421285 3.65282
lowerneck -17.5815 -1.68771 -2.5122
upperneck 21.655 -0.865139 -2.63175
head 9.7873 -0.873248 -0.609754
rclavicle 7.63333e-014 -2.70347e-014
rhumerus -50.7595 6.46077 -95.0535
rradius 102.703
rwrist -10.9691
rhand -20.3326 9.24608
rfingers 7.12502
rthumb 6.01874 -20.6484
lclavicle 7.63333e-014 -2.70347e-014
lhumerus -61.9425 -3.51563 94.2618
lradius 87.4997
lwrist 19.346
lhand -25.574 -9.56526
lfingers 7.12502
lthumb 0.957159 20.4123
rfemur -31.7848 -11.8496 15.8012
rtibia 85.3199
rfoot -11.8997 -8.2253
rtoes -30.4561
lfemur -34.0701 -4.55583 -25.2167
ltibia 59.3443
lfoot -13.9345 0.912728
ltoes 10.5228
196
root 22.9387 15.4825 33.4629 -8.88991 55.0029 -0.404791
lowerback 17.3387 0.70078 -1.7907
upperback 2.19992 0.833547 2.07675
thorax -7.41483 0.518334 3.04945
lowerneck -17.8384 -1.61472 -2.45321
upperneck 21.4974 -0.774357 -2.65545
head 9.77884 -0.830735 -0.616906
rclavicle 5.20567e-014 -7.95139e-015
rhumerus -50.2537 4.78431 -94.7749
rradius 100.303
rwrist -11.1106
rhand -21.1985 8.07002
rfingers 7.12502
rthumb 5.18267 -21.8466
lclavicle 5.20567e-014 -7.95139e-015
lhumerus -59.888 -4.51218 94.4268
lradius 86.653
lwrist 21.5524
lhand -25.467 -9.84776
lfingers 7.12502
lthumb 1.06057 20.1293
rfemur -33.3376 -10.9961 16.5541
rtibia 84.4378
rfoot -12.9448 -8.48687
rtoes -31.7688
lfemur -33.5262 -4.00036 -24.8029
ltibia 61.491
lfoot -15.7909 2.06469
ltoes 7.60589
197
root 23.2119 15.4246 33.6612 -8.65717 54.1741 -0.0287644
lowerback 17.1666 0.944442 -1.81145
upperback 2.13262 1.14416 2.01128
thorax -7.41312 0.667551 2.91836
lowerneck -17.5321 -1.58332 -2.45247
upperneck 21.7715 -0.710353 -2.7187
head 9.81929 -0.806969 -0.629672
rclavicle 8.69186e-014 3.97569e-016
rhumerus -50.2478 3.79353 -94.2602
rradius 97.7768
rwrist -11.1051
rhand -22.2752 7.52082
rfingers 7.12502
rthumb 4.14304 -22.4186
lclavicle 8.69186e-014 3.97569e-016
lhumerus -57.6331 -4.79537 94.526
lradius 84.934
lwrist 20.6334
lhand -25.5926 -10.1751
lfingers 7.12502
lthumb 0.939211 19.8026
rfemur -35.177 -10.2199 16.8118
rtibia 83.0585
rfoot -13.2156 -9.13494
rtoes -33.1271
lfemur -32.9341 -3.47179 -25.0108
ltibia 63.2057
lfoot -17.6545 2.83573
ltoes 8.11145
198
root 23.4831 15.3726 33.8644 -7.77933 53.6654 0.901616
lowerback 16.7347 1.10383 -2.28721
upperback 2.04801 1.25931 1.9105
thorax -7.28238 0.732655 3.05712
lowerneck -17.4711 -1.57172 -2.69901
upperneck 22.2348 -0.611018 -2.682
head 9.97601 -0.780037 -0.565727
rclavicle -1.48592e-014 -7.15625e-015
rhumerus -50.3803 3.22153 -93.7863
rradius 95.7232
rwrist -10.9854
rhand -23.0666 7.56008
rfingers 7.12502
rthumb 3.37879 -22.3929
lclavicle -1.48592e-014 -7.15625e-015
lhumerus -56.1747 -5.0409 94.4954
lradius 84.2631
lwrist 18.4582
lhand -25.9493 -10.1455
lfingers 7.12502
lthumb 0.594694 19.8335
rfemur -37.0894 -9.8172 16.6684
rtibia 81.3852
rfoot -13.7575 -9.40808
rtoes -33.2373
lfemur -32.4002 -3.33997 -25.6041
ltibia 64.7198
lfoot -19.2905 3.40117
ltoes 10.4625
